# xmcd
#
# Track frame offsets:
#	150
#	20270
#	40077
#	59890
#	73754
#	94362
#	120402
#	142169
#	158419
#	178573
#	195101
#	211606
#
# Disc length: 3054 seconds
#
# Revision: 1
# Processed by: cddbd v1.5.2PL0 Copyright (c) Steve Scherf et al.
# Submitted via: audiograbber 1.83.01
#
DISCID=9f0bec0c
DTITLE=Various Artist - Street Beats V09 S06 CD2
DYEAR=1900
DGENRE=R&B
TTITLE0=Justin Timberlake - Rock Your Body
TTITLE1=Ginuwine Ft Baby - Hell Yeah
TTITLE2=Baby Ft Clipse - What Happened To That Boy
TTITLE3=Zena - Get This Party Started (Richie Rich Remix)
TTITLE4=Big Brovaz - Favourite Things (Blacksmith Remix)
TTITLE5=The RH Factor - Poetry Ft Q-Tip and Erykah Badu
TTITLE6=Tyrese - How You Gonna Act Like That
TTITLE7=A.N.O. - Jimmy
TTITLE8=Break Reform - What Do You Do?
TTITLE9=Full Flava Ft Romina Johnson - Round And Round
TTITLE10=Scott Andrews - Come and Get It
TTITLE11=Don Campbell - Any Day
EXTD=
EXTT0=
EXTT1=
EXTT2=
EXTT3=
EXTT4=
EXTT5=
EXTT6=
EXTT7=
EXTT8=
EXTT9=
EXTT10=
EXTT11=
PLAYORDER=
